<svg width="86" height="25" viewBox="0 0 86 25" fill="none" xmlns="http://www.w3.org/2000/svg">
<path d="M65.7563 14.8259C66.4167 14.2689 66.9443 13.5698 67.3 12.7802C67.6558 11.9905 67.8306 11.1306 67.8116 10.2639C67.816 9.45853 67.6619 8.66022 67.3583 7.915C67.0546 7.16977 66.6073 6.49235 66.0422 5.92176C65.4771 5.35117 64.8053 4.89868 64.0656 4.59038C63.3259 4.28207 62.5328 4.12404 61.7321 4.12537H54.6782C54.3228 4.13492 53.9858 4.28577 53.7408 4.54485C53.4959 4.80394 53.3631 5.15013 53.3715 5.50755V21.0507C53.3715 21.1154 53.397 21.1774 53.4425 21.2231C53.4879 21.2688 53.5495 21.2945 53.6138 21.2945H57.6975C57.7618 21.2945 57.8234 21.2688 57.8689 21.2231C57.9143 21.1774 57.9399 21.1154 57.9399 21.0507V8.47923H61.6088C62.5607 8.47923 63.2582 9.28508 63.2674 10.3958C63.2711 10.6834 63.2178 10.9687 63.1106 11.2353C63.0033 11.5018 62.8443 11.7441 62.6428 11.9481C62.4536 12.1425 62.2278 12.2971 61.9786 12.4027C61.7293 12.5084 61.4616 12.563 61.1912 12.5634H59.6138C59.5692 12.5631 59.5252 12.5748 59.4866 12.5974C59.448 12.6199 59.4162 12.6525 59.3943 12.6917C59.3724 12.7308 59.3614 12.7752 59.3624 12.8201C59.3633 12.865 59.3763 12.9088 59.3998 12.947L64.5882 21.1781C64.61 21.2139 64.6407 21.2434 64.6771 21.2638C64.7136 21.2842 64.7547 21.2948 64.7964 21.2945H69.2187C69.2624 21.2946 69.3053 21.2829 69.3429 21.2604C69.3805 21.238 69.4114 21.2058 69.4323 21.1671C69.4531 21.1285 69.4632 21.0849 69.4615 21.041C69.4597 20.997 69.4462 20.9544 69.4223 20.9176L65.6122 14.9407L65.7563 14.8259Z" fill="#006B3F"/>
<path d="M76.5984 12.8381L72.3864 4.26819C72.3669 4.22555 72.3356 4.18944 72.2962 4.16413C72.2569 4.13881 72.2112 4.12536 72.1645 4.12537H67.6423C67.6008 4.12531 67.56 4.13587 67.5238 4.15607C67.4875 4.17627 67.4569 4.20544 67.435 4.24081C67.413 4.27619 67.4004 4.31661 67.3983 4.35826C67.3961 4.39991 67.4046 4.44142 67.4229 4.47887L75.3862 20.5691C75.5039 20.7893 75.6791 20.9732 75.8929 21.1008C76.1067 21.2285 76.351 21.2952 76.5996 21.2937C76.8496 21.2984 77.0959 21.2331 77.3112 21.1052C77.5264 20.9772 77.702 20.7916 77.8185 20.5691L85.8239 4.47929C85.8422 4.44183 85.8508 4.40027 85.8487 4.35856C85.8466 4.31685 85.834 4.27636 85.812 4.24092C85.7901 4.20549 85.7595 4.17627 85.7231 4.15605C85.6868 4.13583 85.6459 4.12527 85.6044 4.12537H81.0298C80.983 4.12534 80.9372 4.13877 80.8978 4.16408C80.8584 4.18939 80.8271 4.22552 80.8074 4.26819L76.5984 12.8381Z" fill="#006B3F"/>
<path d="M49.7666 4.23776C49.5121 4.12959 49.231 4.1013 48.9602 4.15661C48.6895 4.21192 48.4416 4.34824 48.2492 4.5477L40.9987 12.2175L33.7887 4.58875C33.5943 4.38483 33.345 4.2424 33.0713 4.17894C32.7976 4.11548 32.5115 4.13374 32.2479 4.23148C31.9825 4.33375 31.7547 4.51543 31.5951 4.75202C31.4355 4.98861 31.3519 5.26873 31.3556 5.5546V21.0517C31.3557 21.0836 31.3621 21.1152 31.3743 21.1446C31.3865 21.174 31.4044 21.2008 31.4269 21.2233C31.4494 21.2457 31.4761 21.2635 31.5054 21.2756C31.5348 21.2877 31.5662 21.2939 31.5979 21.2938H35.6596C35.6913 21.2939 35.7227 21.2877 35.7521 21.2756C35.7814 21.2635 35.8081 21.2457 35.8306 21.2233C35.8531 21.2008 35.871 21.174 35.8832 21.1446C35.8954 21.1152 35.9018 21.0836 35.9019 21.0517V13.4761L40.0785 17.8078C40.3231 18.0505 40.6527 18.1869 40.9963 18.1876C41.3399 18.1883 41.6701 18.0533 41.9157 17.8116L46.0947 13.4761V21.0521C46.0948 21.084 46.1012 21.1156 46.1134 21.145C46.1257 21.1745 46.1435 21.2012 46.166 21.2237C46.1886 21.2461 46.2152 21.2639 46.2446 21.2761C46.2739 21.2882 46.3054 21.2943 46.3371 21.2942H50.4004C50.4321 21.2943 50.4635 21.2882 50.4929 21.2761C50.5222 21.2639 50.5489 21.2461 50.5714 21.2237C50.5939 21.2012 50.6118 21.1745 50.624 21.145C50.6363 21.1156 50.6426 21.084 50.6427 21.0521V5.55502C50.6464 5.27205 50.5647 4.99462 50.4082 4.75941C50.2518 4.5242 50.0281 4.3423 49.7666 4.23776Z" fill="#006B3F"/>
<path d="M22.1277 1.11877L10.6569 12.6516L15.0709 17.0913C15.1641 17.1854 15.2165 17.3128 15.2166 17.4456V20.579C15.2166 20.7691 15.1415 20.9515 15.0078 21.086C14.8741 21.2205 14.6928 21.296 14.5037 21.296H6.09229V23.2872C6.09229 23.6684 6.24285 24.0341 6.51086 24.3036C6.77887 24.5732 7.14237 24.7247 7.52139 24.7247H23.1425C23.5211 24.7238 23.8838 24.5718 24.1512 24.3022C24.4185 24.0325 24.5685 23.6672 24.5683 23.2864V2.13236C24.5675 1.84829 24.4831 1.57081 24.3257 1.33492C24.1684 1.09902 23.9451 0.91528 23.6841 0.806865C23.423 0.698449 23.1359 0.670216 22.8589 0.725724C22.5819 0.781232 22.3275 0.917996 22.1277 1.11877Z" fill="url(#paint0_linear_1050_2351)"/>
<path d="M6.23945 17.0925L10.6559 12.6528L2.63503 4.5842C2.41978 4.36574 2.14476 4.21664 1.845 4.15589C1.54523 4.09515 1.23427 4.12549 0.951705 4.24308C0.669142 4.36066 0.427758 4.56016 0.258279 4.81618C0.0888005 5.0722 -0.00110443 5.37315 1.02407e-05 5.68073V19.7429C1.02407e-05 20.1539 0.162333 20.5481 0.451272 20.8387C0.74021 21.1293 1.13209 21.2926 1.54072 21.2926H6.09038L6.09371 17.4435C6.0947 17.3118 6.14703 17.1857 6.23945 17.0925Z" fill="url(#paint1_linear_1050_2351)"/>
<path d="M15.2142 20.577V17.4441C15.2141 17.3112 15.1617 17.1838 15.0685 17.0897L10.6546 12.65L6.23982 17.0918C6.14654 17.1858 6.094 17.313 6.09366 17.4458L6.09033 21.2949H14.5018C14.5954 21.2949 14.6881 21.2762 14.7746 21.2401C14.8611 21.204 14.9397 21.1511 15.0059 21.0844C15.072 21.0178 15.1245 20.9386 15.1602 20.8516C15.196 20.7645 15.2143 20.6712 15.2142 20.577Z" fill="url(#paint2_linear_1050_2351)"/>
<defs>
<linearGradient id="paint0_linear_1050_2351" x1="15.3303" y1="0.890211" x2="15.3303" y2="24.6526" gradientUnits="userSpaceOnUse">
<stop stop-color="#FFB81A"/>
<stop offset="1" stop-color="#FF8B22"/>
</linearGradient>
<linearGradient id="paint1_linear_1050_2351" x1="5.32793" y1="4.24554" x2="5.32793" y2="21.1553" gradientUnits="userSpaceOnUse">
<stop stop-color="#82EB5C"/>
<stop offset="1" stop-color="#00D38D"/>
</linearGradient>
<linearGradient id="paint2_linear_1050_2351" x1="10.6523" y1="20.8713" x2="10.6523" y2="12.6846" gradientUnits="userSpaceOnUse">
<stop offset="0.002" stop-color="#079D56"/>
<stop offset="1" stop-color="#006B3F"/>
</linearGradient>
</defs>
</svg>
